<svg width="25" height="25" viewBox="0 0 25 25" fill="none" xmlns="http://www.w3.org/2000/svg">
<g clip-path="url(#clip0_37_327)">
<path d="M24.0547 7.12329V2.43579C24.0547 1.53115 23.3187 0.795166 22.4141 0.795166H13.9766C13.0719 0.795166 12.3359 1.53115 12.3359 2.43579V7.12329C12.3359 8.02793 13.0719 8.76392 13.9766 8.76392H15.8885L15.537 10.1702H11.6016L11.4588 7.02753C11.4074 5.8984 10.4818 5.01392 9.35155 5.01392H5.47662C4.34637 5.01392 3.42078 5.8984 3.36941 7.02753L3.22658 10.1702H0.757812C0.3695 10.1702 0.0546875 10.485 0.0546875 10.8733V23.0608C0.0546875 23.4491 0.3695 23.7639 0.757812 23.7639C1.14613 23.7639 1.46094 23.4491 1.46094 23.0608V14.3889H3.05891C3.11009 14.9678 3.35305 15.5074 3.76231 15.9357C4.17847 16.3712 4.71744 16.6401 5.30473 16.7123V17.9045C5.30473 18.7296 5.91702 19.4141 6.71098 19.5282V21.2179L3.93969 22.0097C3.63777 22.096 3.42969 22.3719 3.42969 22.6858V24.092C3.42969 24.4804 3.7445 24.7952 4.13281 24.7952C4.52112 24.7952 4.83594 24.4804 4.83594 24.092V23.2161L6.71094 22.6804V23.6233C6.71094 24.0116 7.02575 24.3264 7.41406 24.3264C7.80237 24.3264 8.11719 24.0116 8.11719 23.6233V22.6804L9.99219 23.2162V24.092C9.99219 24.4804 10.307 24.7952 10.6953 24.7952C11.0836 24.7952 11.3984 24.4804 11.3984 24.092V22.6858C11.3984 22.3719 11.1904 22.096 10.8885 22.0097L8.11719 21.2179V19.5282C8.91116 19.4141 9.52344 18.7296 9.52344 17.9046V16.7123C10.1107 16.6401 10.6497 16.3712 11.0659 15.9357C11.4751 15.5075 11.7181 14.9678 11.7693 14.389H13.2734V23.0608C13.2734 23.4492 13.5883 23.764 13.9766 23.764C14.3649 23.764 14.6797 23.4492 14.6797 23.0608V20.9515H22.6484V23.0608C22.6484 23.4492 22.9632 23.764 23.3516 23.764C23.7399 23.764 24.0547 23.4492 24.0547 23.0608V10.8733C24.0547 10.485 23.7399 10.1702 23.3516 10.1702H20.8536L20.5021 8.76392H22.4141C23.3187 8.76392 24.0547 8.02793 24.0547 7.12329ZM3.0987 12.9827H1.46094V11.5764H3.16264L3.0987 12.9827ZM8.11719 17.9045C8.11719 18.0338 8.01205 18.1389 7.88281 18.1389H6.94531C6.81608 18.1389 6.71094 18.0338 6.71094 17.9045V16.7327H8.11719V17.9045ZM10.0491 14.9641C9.82592 15.1977 9.52503 15.3264 9.20192 15.3264H5.62625C5.30314 15.3264 5.00225 15.1977 4.77903 14.9641C4.55577 14.7305 4.44092 14.4241 4.45559 14.1013L4.7742 7.09132C4.79131 6.71501 5.09984 6.42017 5.47658 6.42017H9.3515C9.72828 6.42017 10.0368 6.71501 10.0539 7.09137L10.3725 14.1013C10.3872 14.4241 10.2724 14.7305 10.0491 14.9641ZM22.6484 19.5452H14.6797V14.3889H22.6484V19.5452ZM22.6484 11.5764V12.9827H11.7294L11.6655 11.5764H22.6484ZM16.9865 10.1702L17.338 8.76392H19.0526L19.4041 10.1702H16.9865ZM13.9766 7.35767C13.8473 7.35767 13.7422 7.25253 13.7422 7.12329V2.43579C13.7422 2.30656 13.8473 2.20142 13.9766 2.20142H22.4141C22.5433 2.20142 22.6484 2.30656 22.6484 2.43579V7.12329C22.6484 7.25253 22.5433 7.35767 22.4141 7.35767H13.9766Z" fill="white"/>
<path d="M17.2578 17.2014H20.0703C20.4586 17.2014 20.7734 16.8866 20.7734 16.4983C20.7734 16.11 20.4586 15.7952 20.0703 15.7952H17.2578C16.8695 15.7952 16.5547 16.11 16.5547 16.4983C16.5547 16.8866 16.8695 17.2014 17.2578 17.2014Z" fill="white"/>
</g>
<defs>
<clipPath id="clip0_37_327">
<rect width="24" height="24" fill="white" transform="translate(0.0546875 0.795166)"/>
</clipPath>
</defs>
</svg>
