<svg width="25" height="25" viewBox="0 0 25 25" fill="none" xmlns="http://www.w3.org/2000/svg">
<g clip-path="url(#clip0_31_307)">
<path d="M0.763672 24.9675H10.6497V19.2983H0.763672V24.9675ZM2.92583 20.7664H8.53433V22.172H2.92583V20.7664Z" fill="#666666"/>
<path d="M0.763672 17.8927H10.6497V12.3173H0.763672V17.8927ZM2.92583 13.8129H8.53433V15.2184H2.92583V13.8129Z" fill="#666666"/>
<path d="M12.0547 24.9676H24.7519V12.3173H12.0547V24.9676ZM20.4882 13.8129H21.8938V15.2531H20.4882V13.8129ZM17.6771 13.8129H19.0827V15.2531H17.6771V13.8129ZM14.8659 13.8129H16.2715V15.2531H14.8659V13.8129ZM14.8659 16.5106H21.8938V22.1564H14.8659V16.5106Z" fill="#666666"/>
<path d="M20.4882 4.20804V0.967529H16.2715V4.21039L12.0547 7.02153V9.50604H24.7519V7.01919L20.4882 4.20804Z" fill="#666666"/>
</g>
<defs>
<clipPath id="clip0_31_307">
<rect width="24" height="24" fill="white" transform="translate(0.757812 0.967529)"/>
</clipPath>
</defs>
</svg>
