<svg width="25" height="25" viewBox="0 0 25 25" fill="none" xmlns="http://www.w3.org/2000/svg">
<g clip-path="url(#clip0_43_68)">
<path d="M24.3828 7.41821H1.13281C0.925354 7.41821 0.757812 7.25067 0.757812 7.04321V5.54248C0.757812 5.33502 0.925354 5.16748 1.13281 5.16748H24.3828C24.5903 5.16748 24.7578 5.33502 24.7578 5.54248V7.04321C24.7578 7.25067 24.5903 7.41821 24.3828 7.41821ZM1.50781 6.66821H24.0078V5.91748H1.50781V6.66821Z" fill="#666666"/>
<path d="M1.50781 19.05C1.30035 19.05 1.13281 18.8825 1.13281 18.675V7.11011C1.13281 6.90265 1.30035 6.73511 1.50781 6.73511C1.71527 6.73511 1.88281 6.90265 1.88281 7.11011V18.675C1.88281 18.8825 1.71527 19.05 1.50781 19.05Z" fill="#666666"/>
<path d="M2.63281 19.05C2.42535 19.05 2.25781 18.8825 2.25781 18.675V7.11011C2.25781 6.90265 2.42535 6.73511 2.63281 6.73511C2.84027 6.73511 3.00781 6.90265 3.00781 7.11011V18.675C3.00781 18.8825 2.84027 19.05 2.63281 19.05Z" fill="#666666"/>
<path d="M22.8828 19.05C22.6754 19.05 22.5078 18.8825 22.5078 18.675V7.11011C22.5078 6.90265 22.6754 6.73511 22.8828 6.73511C23.0903 6.73511 23.2578 6.90265 23.2578 7.11011V18.675C23.2578 18.8825 23.0903 19.05 22.8828 19.05Z" fill="#666666"/>
<path d="M24.0078 19.05C23.8004 19.05 23.6328 18.8825 23.6328 18.675V7.11011C23.6328 6.90265 23.8004 6.73511 24.0078 6.73511C24.2153 6.73511 24.3828 6.90265 24.3828 7.11011V18.675C24.3828 18.8825 24.2153 19.05 24.0078 19.05Z" fill="#666666"/>
<path d="M2.63281 19.05H1.50781C1.30035 19.05 1.13281 18.8825 1.13281 18.675C1.13281 18.4676 1.30035 18.3 1.50781 18.3H2.63281C2.84027 18.3 3.00781 18.4676 3.00781 18.675C3.00781 18.8825 2.84027 19.05 2.63281 19.05Z" fill="#666666"/>
<path d="M24.0078 19.05H22.8828C22.6754 19.05 22.5078 18.8825 22.5078 18.675C22.5078 18.4676 22.6754 18.3 22.8828 18.3H24.0078C24.2153 18.3 24.3828 18.4676 24.3828 18.675C24.3828 18.8825 24.2153 19.05 24.0078 19.05Z" fill="#666666"/>
<path d="M22.8828 12.6729H2.63281C2.42535 12.6729 2.25781 12.5051 2.25781 12.2979C2.25781 12.0904 2.42535 11.9229 2.63281 11.9229H22.8828C23.0903 11.9229 23.2578 12.0904 23.2578 12.2979C23.2578 12.5051 23.0903 12.6729 22.8828 12.6729Z" fill="#666666"/>
<path d="M22.8828 13.7986H2.63281C2.42535 13.7986 2.25781 13.6309 2.25781 13.4236C2.25781 13.2161 2.42535 13.0486 2.63281 13.0486H22.8828C23.0903 13.0486 23.2578 13.2161 23.2578 13.4236C23.2578 13.6309 23.0903 13.7986 22.8828 13.7986Z" fill="#666666"/>
<path d="M4.13281 12.6736C3.92535 12.6736 3.75781 12.5059 3.75781 12.2986C3.75781 11.2646 4.59863 10.4236 5.63245 10.4236C5.83972 10.4236 6.00745 10.5911 6.00745 10.7986C6.00745 11.0059 5.83972 11.1736 5.63245 11.1736C5.01263 11.1736 4.50781 11.6782 4.50781 12.2986C4.50781 12.5059 4.34009 12.6736 4.13281 12.6736Z" fill="#666666"/>
<path d="M7.88245 12.6736C7.67499 12.6736 7.50745 12.5059 7.50745 12.2986C7.50745 11.6782 7.00262 11.1736 6.38281 11.1736C6.17554 11.1736 6.00781 11.0059 6.00781 10.7986C6.00781 10.5911 6.17554 10.4236 6.38281 10.4236C7.41663 10.4236 8.25745 11.2646 8.25745 12.2986C8.25745 12.5059 8.0899 12.6736 7.88245 12.6736Z" fill="#666666"/>
<path d="M4.50781 11.6817C4.30035 11.6817 4.13281 11.514 4.13281 11.3067V9.29858C4.13281 9.09113 4.30035 8.92358 4.50781 8.92358C4.71509 8.92358 4.88281 9.09113 4.88281 9.29858V11.3067C4.88281 11.514 4.71509 11.6817 4.50781 11.6817Z" fill="#666666"/>
<path d="M7.50586 11.6817C7.2984 11.6817 7.13086 11.514 7.13086 11.3067V9.29858C7.13086 9.09113 7.2984 8.92358 7.50586 8.92358C7.71313 8.92358 7.88086 9.09113 7.88086 9.29858V11.3067C7.88086 11.514 7.71313 11.6817 7.50586 11.6817Z" fill="#666666"/>
<path d="M5.25781 10.0493C5.05035 10.0493 4.88281 9.88159 4.88281 9.67432V8.54858C4.88281 8.34113 5.05035 8.17358 5.25781 8.17358C5.46527 8.17358 5.63281 8.34113 5.63281 8.54858V9.67432C5.63281 9.88159 5.46527 10.0493 5.25781 10.0493Z" fill="#666666"/>
<path d="M6.75781 8.92358H5.25781C5.05035 8.92358 4.88281 8.75586 4.88281 8.54858C4.88281 8.34113 5.05035 8.17358 5.25781 8.17358H6.75781C6.96527 8.17358 7.13281 8.34113 7.13281 8.54858C7.13281 8.75586 6.96527 8.92358 6.75781 8.92358Z" fill="#666666"/>
<path d="M6.75781 10.0493C6.55035 10.0493 6.38281 9.88159 6.38281 9.67432V8.54858C6.38281 8.34113 6.55035 8.17358 6.75781 8.17358C6.96527 8.17358 7.13281 8.34113 7.13281 8.54858V9.67432C7.13281 9.88159 6.96527 10.0493 6.75781 10.0493Z" fill="#666666"/>
<path d="M5.25854 9.67358H4.50781C4.30035 9.67358 4.13281 9.50586 4.13281 9.29858C4.13281 9.09113 4.30035 8.92358 4.50781 8.92358H5.25854C5.466 8.92358 5.63354 9.09113 5.63354 9.29858C5.63354 9.50586 5.466 9.67358 5.25854 9.67358Z" fill="#666666"/>
<path d="M7.50635 9.67358H6.75781C6.55035 9.67358 6.38281 9.50586 6.38281 9.29858C6.38281 9.09113 6.55035 8.92358 6.75781 8.92358H7.50635C7.71362 8.92358 7.88135 9.09113 7.88135 9.29858C7.88135 9.50586 7.71362 9.67358 7.50635 9.67358Z" fill="#666666"/>
<path d="M6.38232 11.1736H5.63086C5.4234 11.1736 5.25586 11.0059 5.25586 10.7986C5.25586 10.5911 5.4234 10.4236 5.63086 10.4236H6.38232C6.58978 10.4236 6.75732 10.5911 6.75732 10.7986C6.75732 11.0059 6.58978 11.1736 6.38232 11.1736Z" fill="#666666"/>
<path d="M9.00781 12.6736C8.80035 12.6736 8.63281 12.5059 8.63281 12.2986C8.63281 11.2646 9.47363 10.4236 10.5074 10.4236C10.7147 10.4236 10.8824 10.5911 10.8824 10.7986C10.8824 11.0059 10.7147 11.1736 10.5074 11.1736C9.88763 11.1736 9.38281 11.6782 9.38281 12.2986C9.38281 12.5059 9.21509 12.6736 9.00781 12.6736Z" fill="#666666"/>
<path d="M12.7574 12.6736C12.55 12.6736 12.3824 12.5059 12.3824 12.2986C12.3824 11.6782 11.8776 11.1736 11.2578 11.1736C11.0505 11.1736 10.8828 11.0059 10.8828 10.7986C10.8828 10.5911 11.0505 10.4236 11.2578 10.4236C12.2916 10.4236 13.1324 11.2646 13.1324 12.2986C13.1324 12.5059 12.9649 12.6736 12.7574 12.6736Z" fill="#666666"/>
<path d="M9.38281 11.6817C9.17535 11.6817 9.00781 11.514 9.00781 11.3067V9.29858C9.00781 9.09113 9.17535 8.92358 9.38281 8.92358C9.59009 8.92358 9.75781 9.09113 9.75781 9.29858V11.3067C9.75781 11.514 9.59009 11.6817 9.38281 11.6817Z" fill="#666666"/>
<path d="M12.3809 11.6817C12.1734 11.6817 12.0059 11.514 12.0059 11.3067V9.29858C12.0059 9.09113 12.1734 8.92358 12.3809 8.92358C12.5881 8.92358 12.7559 9.09113 12.7559 9.29858V11.3067C12.7559 11.514 12.5881 11.6817 12.3809 11.6817Z" fill="#666666"/>
<path d="M10.1328 10.0493C9.92535 10.0493 9.75781 9.88159 9.75781 9.67432V8.54858C9.75781 8.34113 9.92535 8.17358 10.1328 8.17358C10.3403 8.17358 10.5078 8.34113 10.5078 8.54858V9.67432C10.5078 9.88159 10.3403 10.0493 10.1328 10.0493Z" fill="#666666"/>
<path d="M11.6328 8.92358H10.1328C9.92535 8.92358 9.75781 8.75586 9.75781 8.54858C9.75781 8.34113 9.92535 8.17358 10.1328 8.17358H11.6328C11.8403 8.17358 12.0078 8.34113 12.0078 8.54858C12.0078 8.75586 11.8403 8.92358 11.6328 8.92358Z" fill="#666666"/>
<path d="M11.6328 10.0493C11.4254 10.0493 11.2578 9.88159 11.2578 9.67432V8.54858C11.2578 8.34113 11.4254 8.17358 11.6328 8.17358C11.8403 8.17358 12.0078 8.34113 12.0078 8.54858V9.67432C12.0078 9.88159 11.8403 10.0493 11.6328 10.0493Z" fill="#666666"/>
<path d="M10.1335 9.67358H9.38281C9.17535 9.67358 9.00781 9.50586 9.00781 9.29858C9.00781 9.09113 9.17535 8.92358 9.38281 8.92358H10.1335C10.341 8.92358 10.5085 9.09113 10.5085 9.29858C10.5085 9.50586 10.341 9.67358 10.1335 9.67358Z" fill="#666666"/>
<path d="M12.3813 9.67358H11.6328C11.4254 9.67358 11.2578 9.50586 11.2578 9.29858C11.2578 9.09113 11.4254 8.92358 11.6328 8.92358H12.3813C12.5886 8.92358 12.7563 9.09113 12.7563 9.29858C12.7563 9.50586 12.5886 9.67358 12.3813 9.67358Z" fill="#666666"/>
<path d="M11.2573 11.1736H10.5059C10.2984 11.1736 10.1309 11.0059 10.1309 10.7986C10.1309 10.5911 10.2984 10.4236 10.5059 10.4236H11.2573C11.4648 10.4236 11.6323 10.5911 11.6323 10.7986C11.6323 11.0059 11.4648 11.1736 11.2573 11.1736Z" fill="#666666"/>
<path d="M12.7656 18.2993C12.5582 18.2993 12.3906 18.1316 12.3906 17.9243C12.3906 17.3036 12.8958 16.7986 13.5164 16.7986C13.7238 16.7986 13.8914 16.9661 13.8914 17.1736C13.8914 17.3809 13.7238 17.5486 13.5164 17.5486C13.3091 17.5486 13.1406 17.7169 13.1406 17.9243C13.1406 18.1316 12.9727 18.2993 12.7656 18.2993Z" fill="#666666"/>
<path d="M16.5176 18.2993C16.3103 18.2993 16.1426 18.1316 16.1426 17.9243C16.1426 17.7172 15.9747 17.5493 15.7676 17.5493C15.5603 17.5493 15.3926 17.3816 15.3926 17.1743C15.3926 16.9669 15.5603 16.7993 15.7676 16.7993C16.3879 16.7993 16.8926 17.304 16.8926 17.9243C16.8926 18.1316 16.725 18.2993 16.5176 18.2993Z" fill="#666666"/>
<path d="M16.5167 19.05H12.7656C12.5582 19.05 12.3906 18.8825 12.3906 18.675C12.3906 18.4676 12.5582 18.3 12.7656 18.3H16.5171C16.7245 18.3 16.8921 18.4676 16.8921 18.675C16.8921 18.8825 16.7242 19.05 16.5167 19.05Z" fill="#666666"/>
<path d="M15.7971 17.5486H13.4863C13.2791 17.5486 13.1113 17.3809 13.1113 17.1736C13.1113 16.9661 13.2791 16.7986 13.4863 16.7986H15.7971C16.0046 16.7986 16.1721 16.9661 16.1721 17.1736C16.1721 17.3809 16.0046 17.5486 15.7971 17.5486Z" fill="#666666"/>
<path d="M13.5156 17.5486C13.3082 17.5486 13.1406 17.3809 13.1406 17.1736V14.9243C13.1406 14.7169 13.3082 14.5493 13.5156 14.5493C13.7231 14.5493 13.8906 14.7169 13.8906 14.9243V17.1736C13.8906 17.3809 13.7231 17.5486 13.5156 17.5486Z" fill="#666666"/>
<path d="M15.7676 17.5493C15.5603 17.5493 15.3926 17.3816 15.3926 17.1743V14.9243C15.3926 14.7169 15.5603 14.5493 15.7676 14.5493C15.975 14.5493 16.1426 14.7169 16.1426 14.9243V17.1743C16.1426 17.3816 15.975 17.5493 15.7676 17.5493Z" fill="#666666"/>
<path d="M12.7656 19.05C12.5582 19.05 12.3906 18.8825 12.3906 18.675V17.9243C12.3906 17.7169 12.5582 17.5493 12.7656 17.5493C12.9731 17.5493 13.1406 17.7169 13.1406 17.9243V18.675C13.1406 18.8825 12.9727 19.05 12.7656 19.05Z" fill="#666666"/>
<path d="M16.5176 19.05C16.3103 19.05 16.1426 18.8825 16.1426 18.675V17.9243C16.1426 17.7169 16.3103 17.5493 16.5176 17.5493C16.725 17.5493 16.8926 17.7169 16.8926 17.9243V18.675C16.8926 18.8825 16.725 19.05 16.5176 19.05Z" fill="#666666"/>
<path d="M15.7671 15.2993H13.5156C13.3082 15.2993 13.1406 15.1316 13.1406 14.9243C13.1406 14.7169 13.3082 14.5493 13.5156 14.5493H15.7671C15.9745 14.5493 16.1421 14.7169 16.1421 14.9243C16.1421 15.1316 15.9745 15.2993 15.7671 15.2993Z" fill="#666666"/>
<path d="M16.1417 16.4243H13.1406C12.9332 16.4243 12.7656 16.2566 12.7656 16.0493C12.7656 15.8419 12.9332 15.6743 13.1406 15.6743H16.1417C16.3492 15.6743 16.5167 15.8419 16.5167 16.0493C16.5167 16.2566 16.3492 16.4243 16.1417 16.4243Z" fill="#666666"/>
<path d="M17.6406 18.2993C17.4332 18.2993 17.2656 18.1316 17.2656 17.9243C17.2656 17.3036 17.7708 16.7986 18.3914 16.7986C18.5988 16.7986 18.7664 16.9661 18.7664 17.1736C18.7664 17.3809 18.5988 17.5486 18.3914 17.5486C18.1841 17.5486 18.0156 17.7169 18.0156 17.9243C18.0156 18.1316 17.8477 18.2993 17.6406 18.2993Z" fill="#666666"/>
<path d="M21.3926 18.2993C21.1853 18.2993 21.0176 18.1316 21.0176 17.9243C21.0176 17.7172 20.8497 17.5493 20.6426 17.5493C20.4353 17.5493 20.2676 17.3816 20.2676 17.1743C20.2676 16.9669 20.4353 16.7993 20.6426 16.7993C21.2629 16.7993 21.7676 17.304 21.7676 17.9243C21.7676 18.1316 21.6 18.2993 21.3926 18.2993Z" fill="#666666"/>
<path d="M21.3917 19.05H17.6406C17.4332 19.05 17.2656 18.8825 17.2656 18.675C17.2656 18.4676 17.4332 18.3 17.6406 18.3H21.3921C21.5995 18.3 21.7671 18.4676 21.7671 18.675C21.7671 18.8825 21.5992 19.05 21.3917 19.05Z" fill="#666666"/>
<path d="M20.6721 17.5486H18.3613C18.1541 17.5486 17.9863 17.3809 17.9863 17.1736C17.9863 16.9661 18.1541 16.7986 18.3613 16.7986H20.6721C20.8796 16.7986 21.0471 16.9661 21.0471 17.1736C21.0471 17.3809 20.8796 17.5486 20.6721 17.5486Z" fill="#666666"/>
<path d="M18.3906 17.5486C18.1832 17.5486 18.0156 17.3809 18.0156 17.1736V14.9243C18.0156 14.7169 18.1832 14.5493 18.3906 14.5493C18.5981 14.5493 18.7656 14.7169 18.7656 14.9243V17.1736C18.7656 17.3809 18.5981 17.5486 18.3906 17.5486Z" fill="#666666"/>
<path d="M20.6426 17.5493C20.4353 17.5493 20.2676 17.3816 20.2676 17.1743V14.9243C20.2676 14.7169 20.4353 14.5493 20.6426 14.5493C20.85 14.5493 21.0176 14.7169 21.0176 14.9243V17.1743C21.0176 17.3816 20.85 17.5493 20.6426 17.5493Z" fill="#666666"/>
<path d="M17.6406 19.05C17.4332 19.05 17.2656 18.8825 17.2656 18.675V17.9243C17.2656 17.7169 17.4332 17.5493 17.6406 17.5493C17.8481 17.5493 18.0156 17.7169 18.0156 17.9243V18.675C18.0156 18.8825 17.8477 19.05 17.6406 19.05Z" fill="#666666"/>
<path d="M21.3926 19.05C21.1853 19.05 21.0176 18.8825 21.0176 18.675V17.9243C21.0176 17.7169 21.1853 17.5493 21.3926 17.5493C21.6 17.5493 21.7676 17.7169 21.7676 17.9243V18.675C21.7676 18.8825 21.6 19.05 21.3926 19.05Z" fill="#666666"/>
<path d="M20.6421 15.2993H18.3906C18.1832 15.2993 18.0156 15.1316 18.0156 14.9243C18.0156 14.7169 18.1832 14.5493 18.3906 14.5493H20.6421C20.8495 14.5493 21.0171 14.7169 21.0171 14.9243C21.0171 15.1316 20.8495 15.2993 20.6421 15.2993Z" fill="#666666"/>
<path d="M21.0167 16.4243H18.0156C17.8082 16.4243 17.6406 16.2566 17.6406 16.0493C17.6406 15.8419 17.8082 15.6743 18.0156 15.6743H21.0167C21.2242 15.6743 21.3917 15.8419 21.3917 16.0493C21.3917 16.2566 21.2242 16.4243 21.0167 16.4243Z" fill="#666666"/>
</g>
<defs>
<clipPath id="clip0_43_68">
<rect width="24" height="24" fill="white" transform="translate(0.757812 0.10498)"/>
</clipPath>
</defs>
</svg>
