<svg width="25" height="25" viewBox="0 0 25 25" fill="none" xmlns="http://www.w3.org/2000/svg">
<g clip-path="url(#clip0_31_159)">
<path d="M5.18848 12.2644H11.3291C11.869 12.2644 12.3619 12.4685 12.7354 12.8032C13.1089 12.4685 13.6017 12.2644 14.1416 12.2644H20.2822V4.72386C20.2822 4.33737 19.973 4.01576 19.5865 4.0144C19.5807 4.0144 19.8264 4.0144 5.8916 4.0144C5.49148 4.0144 5.18848 4.34244 5.18848 4.72386V12.2644Z" fill="#666666"/>
<path d="M13.4385 14.3738V16.0144H20.2822C20.2822 14.9758 20.2822 14.7625 20.2822 13.6707H14.1416C13.7539 13.6707 13.4385 13.9861 13.4385 14.3738Z" fill="#666666"/>
<path d="M22.4625 8.89051C22.0291 8.90401 21.6885 9.26757 21.6885 9.70116C21.6885 9.81245 21.6885 17.1169 21.6885 16.7176C21.6885 17.1059 21.3737 17.4207 20.9854 17.4207C20.4232 17.4207 3.95159 17.4207 4.48535 17.4207C4.09704 17.4207 3.78223 17.1059 3.78223 16.7176C3.78223 16.4581 3.78223 9.63352 3.78223 9.70116C3.78223 9.26757 3.44159 8.90401 3.00818 8.89051C1.75896 8.8516 0.735352 9.85098 0.735352 11.0926V18.3113C0.735352 19.4763 1.67974 20.4207 2.84473 20.4207H3.78223V21.1977C3.78223 21.5763 4.07318 21.9021 4.45137 21.9199C4.85515 21.9389 5.18848 21.6172 5.18848 21.2176V20.4207H20.2822V21.1977C20.2822 21.5763 20.5732 21.9021 20.9514 21.9199C21.3551 21.9389 21.6885 21.6172 21.6885 21.2176V20.4207H22.626C23.791 20.4207 24.7354 19.4763 24.7354 18.3113V11.1322C24.7354 9.83415 23.7037 8.85184 22.4625 8.89051Z" fill="#666666"/>
<path d="M12.0322 14.3738C12.0322 13.9861 11.7168 13.6707 11.3291 13.6707H5.18848V16.0144H12.0322V14.3738Z" fill="#666666"/>
</g>
<defs>
<clipPath id="clip0_31_159">
<rect width="24" height="24" fill="white" transform="translate(0.735352 0.967529)"/>
</clipPath>
</defs>
</svg>
