<svg width="25" height="25" viewBox="0 0 25 25" fill="none" xmlns="http://www.w3.org/2000/svg">
<g clip-path="url(#clip0_35_322)">
<path d="M19.6538 9.87738C19.9347 9.87738 20.1624 9.64969 20.1624 9.3688V7.73734C20.1624 7.45645 19.9347 7.22876 19.6538 7.22876L18.93 7.23317L16.5547 9.87738H19.6538Z" fill="#666666"/>
<path d="M4.40898 9.87718H7.53249L5.11604 7.22864H4.40898C4.12808 7.22864 3.90039 7.45633 3.90039 7.73722V9.36855C3.90039 9.64949 4.12808 9.87718 4.40898 9.87718Z" fill="#666666"/>
<path d="M12.3228 12.5L17.036 7.22876H7.02637L11.817 12.502C11.9528 12.6515 12.1881 12.6505 12.3228 12.5Z" fill="#666666"/>
<path d="M13.6493 19.9179H12.7737V13.9993C12.5637 14.1206 12.3237 14.1868 12.0761 14.1878C12.0743 14.1878 12.0724 14.1878 12.0706 14.1878C11.8212 14.1878 11.5791 14.1215 11.3674 13.9993V19.9179H10.4122C10.0238 19.9179 9.70898 20.2328 9.70898 20.6211C9.70898 21.0095 10.0238 21.3243 10.4122 21.3243H13.6494C14.0377 21.3243 14.3526 21.0095 14.3526 20.6211C14.3526 20.2328 14.0377 19.9179 13.6493 19.9179Z" fill="#666666"/>
<path d="M5.96192 11.8336H1.43858V3.49846C1.43858 3.11012 1.12374 2.79529 0.735402 2.79529C0.347062 2.79529 0.0322266 3.11012 0.0322266 3.49846V20.6774C0.0322266 21.0657 0.347062 21.3806 0.735402 21.3806C1.12374 21.3806 1.43858 21.0657 1.43858 20.6774V15.425H6.55128V20.6774C6.55128 21.0657 6.86611 21.3806 7.25445 21.3806C7.64279 21.3806 7.95763 21.0657 7.95763 20.6774V13.8293C7.95763 12.7289 7.06234 11.8336 5.96192 11.8336Z" fill="#666666"/>
<path d="M23.3284 2.79529C22.94 2.79529 22.6252 3.11012 22.6252 3.49846V11.8336H18.2066C17.1062 11.8336 16.2109 12.7289 16.2109 13.8293V20.6774C16.2109 21.0657 16.5258 21.3806 16.9141 21.3806C17.3024 21.3806 17.6173 21.0657 17.6173 20.6774V15.4239H22.6252V20.6774C22.6252 21.0657 22.9401 21.3806 23.3284 21.3806C23.7167 21.3806 24.0316 21.0657 24.0316 20.6774V3.49846C24.0315 3.11012 23.7167 2.79529 23.3284 2.79529Z" fill="#666666"/>
</g>
<defs>
<clipPath id="clip0_35_322">
<rect width="24" height="24" fill="white" transform="translate(0.0322266 0.0878906)"/>
</clipPath>
</defs>
</svg>
