<svg width="144" height="23" viewBox="0 0 144 23" fill="none" xmlns="http://www.w3.org/2000/svg">
<path d="M-0.0079999 18.2659V1.46587H7.624C9.448 1.46587 11.056 1.81787 12.448 2.52187C13.84 3.20987 14.928 4.17787 15.712 5.42587C16.496 6.67387 16.888 8.15387 16.888 9.86587C16.888 11.5619 16.496 13.0419 15.712 14.3059C14.928 15.5539 13.84 16.5299 12.448 17.2339C11.056 17.9219 9.448 18.2659 7.624 18.2659H-0.0079999ZM3.88 15.0739H7.432C8.552 15.0739 9.52 14.8659 10.336 14.4499C11.168 14.0179 11.808 13.4099 12.256 12.6259C12.72 11.8419 12.952 10.9219 12.952 9.86587C12.952 8.79387 12.72 7.87387 12.256 7.10587C11.808 6.32187 11.168 5.72187 10.336 5.30587C9.52 4.87387 8.552 4.65787 7.432 4.65787H3.88V15.0739ZM25.0041 18.4579C23.9321 18.4579 22.9721 18.2499 22.1241 17.8339C21.2921 17.4179 20.6441 16.7859 20.1801 15.9379C19.7161 15.0739 19.4841 13.9779 19.4841 12.6499V5.35387H23.2281V12.0979C23.2281 13.1699 23.4521 13.9619 23.9001 14.4739C24.3641 14.9699 25.0121 15.2179 25.8441 15.2179C26.4201 15.2179 26.9321 15.0979 27.3801 14.8579C27.8281 14.6019 28.1801 14.2179 28.4361 13.7059C28.6921 13.1779 28.8201 12.5219 28.8201 11.7379V5.35387H32.5641V18.2659H29.0121V14.7139L29.6601 15.7459C29.2281 16.6419 28.5881 17.3219 27.7401 17.7859C26.9081 18.2339 25.9961 18.4579 25.0041 18.4579ZM41.5767 18.4579C40.3607 18.4579 39.2647 18.1859 38.2887 17.6419C37.3127 17.0819 36.5367 16.3059 35.9607 15.3139C35.4007 14.3219 35.1207 13.1539 35.1207 11.8099C35.1207 10.4499 35.4007 9.27387 35.9607 8.28187C36.5367 7.28987 37.3127 6.52187 38.2887 5.97787C39.2647 5.43387 40.3607 5.16187 41.5767 5.16187C42.6647 5.16187 43.6167 5.40187 44.4327 5.88187C45.2487 6.36187 45.8807 7.08987 46.3287 8.06587C46.7767 9.04187 47.0007 10.2899 47.0007 11.8099C47.0007 13.3139 46.7847 14.5619 46.3527 15.5539C45.9207 16.5299 45.2967 17.2579 44.4807 17.7379C43.6807 18.2179 42.7127 18.4579 41.5767 18.4579ZM42.2247 15.3859C42.8327 15.3859 43.3847 15.2419 43.8807 14.9539C44.3767 14.6659 44.7687 14.2579 45.0567 13.7299C45.3607 13.1859 45.5127 12.5459 45.5127 11.8099C45.5127 11.0579 45.3607 10.4179 45.0567 9.88987C44.7687 9.36187 44.3767 8.95387 43.8807 8.66587C43.3847 8.37787 42.8327 8.23387 42.2247 8.23387C41.6007 8.23387 41.0407 8.37787 40.5447 8.66587C40.0487 8.95387 39.6487 9.36187 39.3447 9.88987C39.0567 10.4179 38.9127 11.0579 38.9127 11.8099C38.9127 12.5459 39.0567 13.1859 39.3447 13.7299C39.6487 14.2579 40.0487 14.6659 40.5447 14.9539C41.0407 15.2419 41.6007 15.3859 42.2247 15.3859ZM45.6087 18.2659V15.6259L45.6807 11.7859L45.4407 7.96987V0.457868H49.1847V18.2659H45.6087ZM59.0579 18.4579C57.5859 18.4579 56.2899 18.1699 55.1699 17.5939C54.0659 17.0179 53.2099 16.2339 52.6019 15.2419C51.9939 14.2339 51.6899 13.0899 51.6899 11.8099C51.6899 10.5139 51.9859 9.36987 52.5779 8.37787C53.1859 7.36987 54.0099 6.58587 55.0499 6.02587C56.0899 5.44987 57.2659 5.16187 58.5779 5.16187C59.8419 5.16187 60.9779 5.43387 61.9859 5.97787C63.0099 6.50587 63.8179 7.27387 64.4099 8.28187C65.0019 9.27387 65.2979 10.4659 65.2979 11.8579C65.2979 12.0019 65.2899 12.1699 65.2739 12.3619C65.2579 12.5379 65.2419 12.7059 65.2259 12.8659H54.7379V10.6819H63.2579L61.8179 11.3299C61.8179 10.6579 61.6819 10.0739 61.4099 9.57787C61.1379 9.08187 60.7619 8.69787 60.2819 8.42587C59.8019 8.13787 59.2419 7.99387 58.6019 7.99387C57.9619 7.99387 57.3939 8.13787 56.8979 8.42587C56.4179 8.69787 56.0419 9.08987 55.7699 9.60187C55.4979 10.0979 55.3619 10.6899 55.3619 11.3779V11.9539C55.3619 12.6579 55.5139 13.2819 55.8179 13.8259C56.1379 14.3539 56.5779 14.7619 57.1379 15.0499C57.7139 15.3219 58.3859 15.4579 59.1539 15.4579C59.8419 15.4579 60.4419 15.3539 60.9539 15.1459C61.4819 14.9379 61.9619 14.6259 62.3939 14.2099L64.3859 16.3699C63.7939 17.0419 63.0499 17.5619 62.1539 17.9299C61.2579 18.2819 60.2259 18.4579 59.0579 18.4579ZM73.5745 18.5539C72.2305 18.5539 70.9425 18.3779 69.7105 18.0259C68.4785 17.6579 67.4865 17.1859 66.7345 16.6099L68.0545 13.6819C68.7745 14.1939 69.6225 14.6179 70.5985 14.9539C71.5905 15.2739 72.5905 15.4339 73.5985 15.4339C74.3665 15.4339 74.9825 15.3619 75.4465 15.2179C75.9265 15.0579 76.2785 14.8419 76.5025 14.5699C76.7265 14.2979 76.8385 13.9859 76.8385 13.6339C76.8385 13.1859 76.6625 12.8339 76.3105 12.5779C75.9585 12.3059 75.4945 12.0899 74.9185 11.9299C74.3425 11.7539 73.7025 11.5939 72.9985 11.4499C72.3105 11.2899 71.6145 11.0979 70.9105 10.8739C70.2225 10.6499 69.5905 10.3619 69.0145 10.0099C68.4385 9.65787 67.9665 9.19387 67.5985 8.61787C67.2465 8.04187 67.0705 7.30587 67.0705 6.40987C67.0705 5.44987 67.3265 4.57787 67.8385 3.79387C68.3665 2.99387 69.1505 2.36187 70.1905 1.89787C71.2465 1.41787 72.5665 1.17787 74.1505 1.17787C75.2065 1.17787 76.2465 1.30587 77.2705 1.56187C78.2945 1.80187 79.1985 2.16987 79.9825 2.66587L78.7825 5.61787C77.9985 5.16987 77.2145 4.84187 76.4305 4.63387C75.6465 4.40987 74.8785 4.29787 74.1265 4.29787C73.3745 4.29787 72.7585 4.38587 72.2785 4.56187C71.7985 4.73787 71.4545 4.96987 71.2465 5.25787C71.0385 5.52987 70.9345 5.84987 70.9345 6.21787C70.9345 6.64987 71.1105 7.00187 71.4625 7.27387C71.8145 7.52987 72.2785 7.73787 72.8545 7.89787C73.4305 8.05787 74.0625 8.21787 74.7505 8.37787C75.4545 8.53787 76.1505 8.72187 76.8385 8.92987C77.5425 9.13787 78.1825 9.41787 78.7585 9.76987C79.3345 10.1219 79.7985 10.5859 80.1505 11.1619C80.5185 11.7379 80.7025 12.4659 80.7025 13.3459C80.7025 14.2899 80.4385 15.1539 79.9105 15.9379C79.3825 16.7219 78.5905 17.3539 77.5345 17.8339C76.4945 18.3139 75.1745 18.5539 73.5745 18.5539ZM90.9432 5.16187C91.9672 5.16187 92.8792 5.36987 93.6792 5.78587C94.4952 6.18587 95.1352 6.80987 95.5992 7.65787C96.0632 8.48987 96.2952 9.56187 96.2952 10.8739V18.2659H92.5512V11.4499C92.5512 10.4099 92.3192 9.64187 91.8552 9.14587C91.4072 8.64987 90.7672 8.40187 89.9352 8.40187C89.3432 8.40187 88.8072 8.52987 88.3272 8.78587C87.8632 9.02587 87.4952 9.40187 87.2232 9.91387C86.9672 10.4259 86.8392 11.0819 86.8392 11.8819V18.2659H83.0952V0.457868H86.8392V8.92987L85.9992 7.84987C86.4632 6.98587 87.1272 6.32187 87.9912 5.85787C88.8552 5.39387 89.8392 5.16187 90.9432 5.16187ZM107.609 18.2659V15.7459L107.369 15.1939V10.6819C107.369 9.88187 107.121 9.25787 106.625 8.80987C106.145 8.36187 105.401 8.13787 104.393 8.13787C103.705 8.13787 103.025 8.24987 102.353 8.47387C101.697 8.68187 101.137 8.96987 100.673 9.33787L99.3289 6.72187C100.033 6.22587 100.881 5.84187 101.873 5.56987C102.865 5.29787 103.873 5.16187 104.897 5.16187C106.865 5.16187 108.393 5.62587 109.481 6.55387C110.569 7.48187 111.113 8.92987 111.113 10.8979V18.2659H107.609ZM103.673 18.4579C102.665 18.4579 101.801 18.2899 101.081 17.9539C100.361 17.6019 99.8089 17.1299 99.4249 16.5379C99.0409 15.9459 98.8489 15.2819 98.8489 14.5459C98.8489 13.7779 99.0329 13.1059 99.4009 12.5299C99.7849 11.9539 100.385 11.5059 101.201 11.1859C102.017 10.8499 103.081 10.6819 104.393 10.6819H107.825V12.8659H104.801C103.921 12.8659 103.313 13.0099 102.977 13.2979C102.657 13.5859 102.497 13.9459 102.497 14.3779C102.497 14.8579 102.681 15.2419 103.049 15.5299C103.433 15.8019 103.953 15.9379 104.609 15.9379C105.233 15.9379 105.793 15.7939 106.289 15.5059C106.785 15.2019 107.145 14.7619 107.369 14.1859L107.945 15.9139C107.673 16.7459 107.177 17.3779 106.457 17.8099C105.737 18.2419 104.809 18.4579 103.673 18.4579ZM122.133 18.4579C121.045 18.4579 120.093 18.2179 119.277 17.7379C118.461 17.2579 117.821 16.5299 117.357 15.5539C116.909 14.5619 116.685 13.3139 116.685 11.8099C116.685 10.2899 116.901 9.04187 117.333 8.06587C117.765 7.08987 118.389 6.36187 119.205 5.88187C120.021 5.40187 120.997 5.16187 122.133 5.16187C123.349 5.16187 124.437 5.44187 125.397 6.00187C126.373 6.54587 127.141 7.31387 127.701 8.30587C128.277 9.29787 128.565 10.4659 128.565 11.8099C128.565 13.1699 128.277 14.3459 127.701 15.3379C127.141 16.3299 126.373 17.0979 125.397 17.6419C124.437 18.1859 123.349 18.4579 122.133 18.4579ZM114.501 22.9219V5.35387H118.077V7.99387L118.005 11.8339L118.245 15.6499V22.9219H114.501ZM121.485 15.3859C122.109 15.3859 122.661 15.2419 123.141 14.9539C123.637 14.6659 124.029 14.2579 124.317 13.7299C124.621 13.1859 124.773 12.5459 124.773 11.8099C124.773 11.0579 124.621 10.4179 124.317 9.88987C124.029 9.36187 123.637 8.95387 123.141 8.66587C122.661 8.37787 122.109 8.23387 121.485 8.23387C120.861 8.23387 120.301 8.37787 119.805 8.66587C119.309 8.95387 118.917 9.36187 118.629 9.88987C118.341 10.4179 118.197 11.0579 118.197 11.8099C118.197 12.5459 118.341 13.1859 118.629 13.7299C118.917 14.2579 119.309 14.6659 119.805 14.9539C120.301 15.2419 120.861 15.3859 121.485 15.3859ZM137.48 18.4579C136.008 18.4579 134.712 18.1699 133.592 17.5939C132.488 17.0179 131.632 16.2339 131.024 15.2419C130.416 14.2339 130.112 13.0899 130.112 11.8099C130.112 10.5139 130.408 9.36987 131 8.37787C131.608 7.36987 132.432 6.58587 133.472 6.02587C134.512 5.44987 135.688 5.16187 137 5.16187C138.264 5.16187 139.4 5.43387 140.408 5.97787C141.432 6.50587 142.24 7.27387 142.832 8.28187C143.424 9.27387 143.72 10.4659 143.72 11.8579C143.72 12.0019 143.712 12.1699 143.696 12.3619C143.68 12.5379 143.664 12.7059 143.648 12.8659H133.16V10.6819H141.68L140.24 11.3299C140.24 10.6579 140.104 10.0739 139.832 9.57787C139.56 9.08187 139.184 8.69787 138.704 8.42587C138.224 8.13787 137.664 7.99387 137.024 7.99387C136.384 7.99387 135.816 8.13787 135.32 8.42587C134.84 8.69787 134.464 9.08987 134.192 9.60187C133.92 10.0979 133.784 10.6899 133.784 11.3779V11.9539C133.784 12.6579 133.936 13.2819 134.24 13.8259C134.56 14.3539 135 14.7619 135.56 15.0499C136.136 15.3219 136.808 15.4579 137.576 15.4579C138.264 15.4579 138.864 15.3539 139.376 15.1459C139.904 14.9379 140.384 14.6259 140.816 14.2099L142.808 16.3699C142.216 17.0419 141.472 17.5619 140.576 17.9299C139.68 18.2819 138.648 18.4579 137.48 18.4579Z" fill="#244D4D"/>
</svg>
