<svg width="144" height="24" viewBox="0 0 144 24" fill="none" xmlns="http://www.w3.org/2000/svg">
<path d="M-0.00897646 18.7129V1.91289H7.62302C9.44702 1.91289 11.055 2.26489 12.447 2.96889C13.839 3.65689 14.927 4.62489 15.711 5.87289C16.495 7.12089 16.887 8.60089 16.887 10.3129C16.887 12.0089 16.495 13.4889 15.711 14.7529C14.927 16.0009 13.839 16.9769 12.447 17.6809C11.055 18.3689 9.44702 18.7129 7.62302 18.7129H-0.00897646ZM3.87902 15.5209H7.43102C8.55102 15.5209 9.51902 15.3129 10.335 14.8969C11.167 14.4649 11.807 13.8569 12.255 13.0729C12.719 12.2889 12.951 11.3689 12.951 10.3129C12.951 9.24089 12.719 8.32089 12.255 7.55289C11.807 6.76889 11.167 6.16889 10.335 5.75289C9.51902 5.32089 8.55102 5.10489 7.43102 5.10489H3.87902V15.5209ZM25.0031 18.9049C23.9311 18.9049 22.9711 18.6969 22.1231 18.2809C21.2911 17.8649 20.6431 17.2329 20.1791 16.3849C19.7151 15.5209 19.4831 14.4249 19.4831 13.0969V5.80089H23.2271V12.5449C23.2271 13.6169 23.4511 14.4089 23.8991 14.9209C24.3631 15.4169 25.0111 15.6649 25.8431 15.6649C26.4191 15.6649 26.9311 15.5449 27.3791 15.3049C27.8271 15.0489 28.1791 14.6649 28.4351 14.1529C28.6911 13.6249 28.8191 12.9689 28.8191 12.1849V5.80089H32.5631V18.7129H29.0111V15.1609L29.6591 16.1929C29.2271 17.0889 28.5871 17.7689 27.7391 18.2329C26.9071 18.6809 25.9951 18.9049 25.0031 18.9049ZM41.5757 18.9049C40.3597 18.9049 39.2637 18.6329 38.2877 18.0889C37.3117 17.5289 36.5357 16.7529 35.9597 15.7609C35.3997 14.7689 35.1197 13.6009 35.1197 12.2569C35.1197 10.8969 35.3997 9.72089 35.9597 8.72889C36.5357 7.73689 37.3117 6.96889 38.2877 6.42489C39.2637 5.88089 40.3597 5.60889 41.5757 5.60889C42.6637 5.60889 43.6157 5.84889 44.4317 6.32889C45.2477 6.80889 45.8797 7.53689 46.3277 8.51289C46.7757 9.48889 46.9997 10.7369 46.9997 12.2569C46.9997 13.7609 46.7837 15.0089 46.3517 16.0009C45.9197 16.9769 45.2957 17.7049 44.4797 18.1849C43.6797 18.6649 42.7117 18.9049 41.5757 18.9049ZM42.2237 15.8329C42.8317 15.8329 43.3837 15.6889 43.8797 15.4009C44.3757 15.1129 44.7677 14.7049 45.0557 14.1769C45.3597 13.6329 45.5117 12.9929 45.5117 12.2569C45.5117 11.5049 45.3597 10.8649 45.0557 10.3369C44.7677 9.80889 44.3757 9.40089 43.8797 9.11289C43.3837 8.82489 42.8317 8.68089 42.2237 8.68089C41.5997 8.68089 41.0397 8.82489 40.5437 9.11289C40.0477 9.40089 39.6477 9.80889 39.3437 10.3369C39.0557 10.8649 38.9117 11.5049 38.9117 12.2569C38.9117 12.9929 39.0557 13.6329 39.3437 14.1769C39.6477 14.7049 40.0477 15.1129 40.5437 15.4009C41.0397 15.6889 41.5997 15.8329 42.2237 15.8329ZM45.6077 18.7129V16.0729L45.6797 12.2329L45.4397 8.41689V0.90489H49.1837V18.7129H45.6077ZM59.0569 18.9049C57.5849 18.9049 56.2889 18.6169 55.1689 18.0409C54.0649 17.4649 53.2089 16.6809 52.6009 15.6889C51.9929 14.6809 51.6889 13.5369 51.6889 12.2569C51.6889 10.9609 51.9849 9.81689 52.5769 8.82489C53.1849 7.81689 54.0089 7.03289 55.0489 6.47289C56.0889 5.89689 57.2649 5.60889 58.5769 5.60889C59.8409 5.60889 60.9769 5.88089 61.9849 6.42489C63.0089 6.95289 63.8169 7.72089 64.4089 8.72889C65.0009 9.72089 65.2969 10.9129 65.2969 12.3049C65.2969 12.4489 65.2889 12.6169 65.2729 12.8089C65.2569 12.9849 65.2409 13.1529 65.2249 13.3129H54.7369V11.1289H63.2569L61.8169 11.7769C61.8169 11.1049 61.6809 10.5209 61.4089 10.0249C61.1369 9.52889 60.7609 9.14489 60.2809 8.87289C59.8009 8.58489 59.2409 8.44089 58.6009 8.44089C57.9609 8.44089 57.3929 8.58489 56.8969 8.87289C56.4169 9.14489 56.0409 9.53689 55.7689 10.0489C55.4969 10.5449 55.3609 11.1369 55.3609 11.8249V12.4009C55.3609 13.1049 55.5129 13.7289 55.8169 14.2729C56.1369 14.8009 56.5769 15.2089 57.1369 15.4969C57.7129 15.7689 58.3849 15.9049 59.1529 15.9049C59.8409 15.9049 60.4409 15.8009 60.9529 15.5929C61.4809 15.3849 61.9609 15.0729 62.3929 14.6569L64.3849 16.8169C63.7929 17.4889 63.0489 18.0089 62.1529 18.3769C61.2569 18.7289 60.2249 18.9049 59.0569 18.9049ZM73.5735 19.0009C72.2295 19.0009 70.9415 18.8249 69.7095 18.4729C68.4775 18.1049 67.4855 17.6329 66.7335 17.0569L68.0535 14.1289C68.7735 14.6409 69.6215 15.0649 70.5975 15.4009C71.5895 15.7209 72.5895 15.8809 73.5975 15.8809C74.3655 15.8809 74.9815 15.8089 75.4455 15.6649C75.9255 15.5049 76.2775 15.2889 76.5015 15.0169C76.7255 14.7449 76.8375 14.4329 76.8375 14.0809C76.8375 13.6329 76.6615 13.2809 76.3095 13.0249C75.9575 12.7529 75.4935 12.5369 74.9175 12.3769C74.3415 12.2009 73.7015 12.0409 72.9975 11.8969C72.3095 11.7369 71.6135 11.5449 70.9095 11.3209C70.2215 11.0969 69.5895 10.8089 69.0135 10.4569C68.4375 10.1049 67.9655 9.64089 67.5975 9.06489C67.2455 8.48889 67.0695 7.75289 67.0695 6.85689C67.0695 5.89689 67.3255 5.02489 67.8375 4.24089C68.3655 3.44089 69.1495 2.80889 70.1895 2.34489C71.2455 1.86489 72.5655 1.62489 74.1495 1.62489C75.2055 1.62489 76.2455 1.75289 77.2695 2.00889C78.2935 2.24889 79.1975 2.61689 79.9815 3.11289L78.7815 6.06489C77.9975 5.61689 77.2135 5.28889 76.4295 5.08089C75.6455 4.85689 74.8775 4.74489 74.1255 4.74489C73.3735 4.74489 72.7575 4.83289 72.2775 5.00889C71.7975 5.18489 71.4535 5.41689 71.2455 5.70489C71.0375 5.97689 70.9335 6.29689 70.9335 6.66489C70.9335 7.09689 71.1095 7.44889 71.4615 7.72089C71.8135 7.97689 72.2775 8.18489 72.8535 8.34489C73.4295 8.50489 74.0615 8.66489 74.7495 8.82489C75.4535 8.98489 76.1495 9.16889 76.8375 9.37689C77.5415 9.58489 78.1815 9.86489 78.7575 10.2169C79.3335 10.5689 79.7975 11.0329 80.1495 11.6089C80.5175 12.1849 80.7015 12.9129 80.7015 13.7929C80.7015 14.7369 80.4375 15.6009 79.9095 16.3849C79.3815 17.1689 78.5895 17.8009 77.5335 18.2809C76.4935 18.7609 75.1735 19.0009 73.5735 19.0009ZM90.9422 5.60889C91.9662 5.60889 92.8782 5.81689 93.6782 6.23289C94.4942 6.63289 95.1342 7.25689 95.5982 8.10489C96.0622 8.93689 96.2942 10.0089 96.2942 11.3209V18.7129H92.5502V11.8969C92.5502 10.8569 92.3182 10.0889 91.8542 9.59289C91.4062 9.09689 90.7662 8.84889 89.9342 8.84889C89.3422 8.84889 88.8062 8.97689 88.3262 9.23289C87.8622 9.47289 87.4942 9.84889 87.2222 10.3609C86.9662 10.8729 86.8382 11.5289 86.8382 12.3289V18.7129H83.0942V0.90489H86.8382V9.37689L85.9982 8.29689C86.4622 7.43289 87.1262 6.76889 87.9902 6.30489C88.8542 5.84089 89.8382 5.60889 90.9422 5.60889ZM107.608 18.7129V16.1929L107.368 15.6409V11.1289C107.368 10.3289 107.12 9.70489 106.624 9.25689C106.144 8.80889 105.4 8.58489 104.392 8.58489C103.704 8.58489 103.024 8.69689 102.352 8.92089C101.696 9.12889 101.136 9.41689 100.672 9.78489L99.328 7.16889C100.032 6.67289 100.88 6.28889 101.872 6.01689C102.864 5.74489 103.872 5.60889 104.896 5.60889C106.864 5.60889 108.392 6.07289 109.48 7.00089C110.568 7.92889 111.112 9.37689 111.112 11.3449V18.7129H107.608ZM103.672 18.9049C102.664 18.9049 101.8 18.7369 101.08 18.4009C100.36 18.0489 99.808 17.5769 99.424 16.9849C99.04 16.3929 98.848 15.7289 98.848 14.9929C98.848 14.2249 99.032 13.5529 99.4 12.9769C99.784 12.4009 100.384 11.9529 101.2 11.6329C102.016 11.2969 103.08 11.1289 104.392 11.1289H107.824V13.3129H104.8C103.92 13.3129 103.312 13.4569 102.976 13.7449C102.656 14.0329 102.496 14.3929 102.496 14.8249C102.496 15.3049 102.68 15.6889 103.048 15.9769C103.432 16.2489 103.952 16.3849 104.608 16.3849C105.232 16.3849 105.792 16.2409 106.288 15.9529C106.784 15.6489 107.144 15.2089 107.368 14.6329L107.944 16.3609C107.672 17.1929 107.176 17.8249 106.456 18.2569C105.736 18.6889 104.808 18.9049 103.672 18.9049ZM122.132 18.9049C121.044 18.9049 120.092 18.6649 119.276 18.1849C118.46 17.7049 117.82 16.9769 117.356 16.0009C116.908 15.0089 116.684 13.7609 116.684 12.2569C116.684 10.7369 116.9 9.48889 117.332 8.51289C117.764 7.53689 118.388 6.80889 119.204 6.32889C120.02 5.84889 120.996 5.60889 122.132 5.60889C123.348 5.60889 124.436 5.88889 125.396 6.44889C126.372 6.99289 127.14 7.76089 127.7 8.75289C128.276 9.74489 128.564 10.9129 128.564 12.2569C128.564 13.6169 128.276 14.7929 127.7 15.7849C127.14 16.7769 126.372 17.5449 125.396 18.0889C124.436 18.6329 123.348 18.9049 122.132 18.9049ZM114.5 23.3689V5.80089H118.076V8.44089L118.004 12.2809L118.244 16.0969V23.3689H114.5ZM121.484 15.8329C122.108 15.8329 122.66 15.6889 123.14 15.4009C123.636 15.1129 124.028 14.7049 124.316 14.1769C124.62 13.6329 124.772 12.9929 124.772 12.2569C124.772 11.5049 124.62 10.8649 124.316 10.3369C124.028 9.80889 123.636 9.40089 123.14 9.11289C122.66 8.82489 122.108 8.68089 121.484 8.68089C120.86 8.68089 120.3 8.82489 119.804 9.11289C119.308 9.40089 118.916 9.80889 118.628 10.3369C118.34 10.8649 118.196 11.5049 118.196 12.2569C118.196 12.9929 118.34 13.6329 118.628 14.1769C118.916 14.7049 119.308 15.1129 119.804 15.4009C120.3 15.6889 120.86 15.8329 121.484 15.8329ZM137.479 18.9049C136.007 18.9049 134.711 18.6169 133.591 18.0409C132.487 17.4649 131.631 16.6809 131.023 15.6889C130.415 14.6809 130.111 13.5369 130.111 12.2569C130.111 10.9609 130.407 9.81689 130.999 8.82489C131.607 7.81689 132.431 7.03289 133.471 6.47289C134.511 5.89689 135.687 5.60889 136.999 5.60889C138.263 5.60889 139.399 5.88089 140.407 6.42489C141.431 6.95289 142.239 7.72089 142.831 8.72889C143.423 9.72089 143.719 10.9129 143.719 12.3049C143.719 12.4489 143.711 12.6169 143.695 12.8089C143.679 12.9849 143.663 13.1529 143.647 13.3129H133.159V11.1289H141.679L140.239 11.7769C140.239 11.1049 140.103 10.5209 139.831 10.0249C139.559 9.52889 139.183 9.14489 138.703 8.87289C138.223 8.58489 137.663 8.44089 137.023 8.44089C136.383 8.44089 135.815 8.58489 135.319 8.87289C134.839 9.14489 134.463 9.53689 134.191 10.0489C133.919 10.5449 133.783 11.1369 133.783 11.8249V12.4009C133.783 13.1049 133.935 13.7289 134.239 14.2729C134.559 14.8009 134.999 15.2089 135.559 15.4969C136.135 15.7689 136.807 15.9049 137.575 15.9049C138.263 15.9049 138.863 15.8009 139.375 15.5929C139.903 15.3849 140.383 15.0729 140.815 14.6569L142.807 16.8169C142.215 17.4889 141.471 18.0089 140.575 18.3769C139.679 18.7289 138.647 18.9049 137.479 18.9049Z" fill="white"/>
</svg>
