<svg width="67" height="53" viewBox="0 0 67 53" fill="none" xmlns="http://www.w3.org/2000/svg">
<g clip-path="url(#clip0_27_19)">
<path d="M12.1877 52.1634V48.7139C12.1877 47.3916 11.3829 46.5292 10.0031 46.5292C9.31319 46.5292 8.56581 46.7592 8.04839 47.5066C7.64595 46.8742 7.07103 46.5292 6.20866 46.5292C5.63375 46.5292 5.05885 46.7017 4.59892 47.3341V46.6442H3.3916V52.1634H4.59892V49.1163C4.59892 48.139 5.11633 47.679 5.92121 47.679C6.72608 47.679 7.12852 48.1965 7.12852 49.1163V52.1634H8.33584V49.1163C8.33584 48.139 8.91075 47.679 9.65813 47.679C10.463 47.679 10.8654 48.1965 10.8654 49.1163V52.1634H12.1877ZM30.0675 46.6442H28.1128V44.977H26.9055V46.6442H25.8131V47.7365H26.9055V50.2661C26.9055 51.5309 27.4229 52.2783 28.8027 52.2783C29.3201 52.2783 29.895 52.1059 30.2974 51.8759L29.9525 50.841C29.6075 51.071 29.2051 51.1285 28.9177 51.1285C28.3427 51.1285 28.1128 50.7836 28.1128 50.2087V47.7365H30.0675V46.6442ZM40.3009 46.5292C39.611 46.5292 39.1511 46.8742 38.8636 47.3341V46.6442H37.6563V52.1634H38.8636V49.0588C38.8636 48.139 39.2661 47.6216 40.0134 47.6216C40.2434 47.6216 40.5309 47.679 40.7608 47.7365L41.1058 46.5867C40.8758 46.5292 40.5309 46.5292 40.3009 46.5292ZM24.8358 47.1041C24.2609 46.7017 23.456 46.5292 22.5936 46.5292C21.2138 46.5292 20.294 47.2191 20.294 48.3114C20.294 49.2313 20.9839 49.7487 22.1912 49.9212L22.7661 49.9787C23.3985 50.0937 23.7435 50.2661 23.7435 50.5536C23.7435 50.956 23.2835 51.2435 22.4786 51.2435C21.6738 51.2435 21.0414 50.956 20.6389 50.6686L20.064 51.5884C20.6964 52.0484 21.5588 52.2783 22.4212 52.2783C24.0309 52.2783 24.9508 51.531 24.9508 50.4961C24.9508 49.5188 24.2034 49.0013 23.0536 48.8289L22.4786 48.7714C21.9612 48.7139 21.5588 48.5989 21.5588 48.2539C21.5588 47.8515 21.9612 47.6216 22.5936 47.6216C23.2835 47.6216 23.9734 47.909 24.3184 48.0815L24.8358 47.1041ZM56.9158 46.5292C56.2259 46.5292 55.766 46.8742 55.4786 47.3341V46.6442H54.2712V52.1634H55.4786V49.0588C55.4786 48.139 55.881 47.6216 56.6284 47.6216C56.8583 47.6216 57.1458 47.679 57.3758 47.7365L57.7207 46.5867C57.4907 46.5292 57.1458 46.5292 56.9158 46.5292ZM41.5082 49.4038C41.5082 51.071 42.658 52.2783 44.4403 52.2783C45.2451 52.2783 45.82 52.1059 46.395 51.6459L45.82 50.6686C45.3601 51.0135 44.9002 51.186 44.3828 51.186C43.4054 51.186 42.7155 50.4961 42.7155 49.4038C42.7155 48.3689 43.4054 47.6791 44.3828 47.6216C44.9002 47.6216 45.3601 47.794 45.82 48.139L46.395 47.1616C45.82 46.7017 45.2451 46.5292 44.4403 46.5292C42.658 46.5292 41.5082 47.7365 41.5082 49.4038ZM52.6615 49.4038V46.6442H51.4542V47.3341C51.0517 46.8167 50.4768 46.5292 49.7295 46.5292C48.1772 46.5292 46.9699 47.7365 46.9699 49.4038C46.9699 51.071 48.1772 52.2783 49.7295 52.2783C50.5343 52.2783 51.1092 51.9909 51.4542 51.4735V52.1634H52.6615V49.4038ZM48.2347 49.4038C48.2347 48.4264 48.8671 47.6216 49.9019 47.6216C50.8793 47.6216 51.5692 48.3689 51.5692 49.4038C51.5692 50.3811 50.8793 51.186 49.9019 51.186C48.8671 51.1285 48.2347 50.3811 48.2347 49.4038ZM33.8044 46.5292C32.1947 46.5292 31.0448 47.679 31.0448 49.4038C31.0448 51.1285 32.1947 52.2783 33.8619 52.2783C34.6668 52.2783 35.4716 52.0484 36.104 51.5309L35.5291 50.6686C35.0692 51.0135 34.4943 51.2435 33.9194 51.2435C33.172 51.2435 32.4246 50.8986 32.2521 49.9212H36.334C36.334 49.7487 36.334 49.6337 36.334 49.4613C36.3915 47.679 35.3567 46.5292 33.8044 46.5292ZM33.8044 47.5641C34.5518 47.5641 35.0692 48.024 35.1842 48.8864H32.3096C32.4246 48.139 32.942 47.5641 33.8044 47.5641ZM63.7573 49.4038V44.4595H62.55V47.3341C62.1475 46.8167 61.5726 46.5292 60.8252 46.5292C59.273 46.5292 58.0657 47.7365 58.0657 49.4038C58.0657 51.071 59.273 52.2783 60.8252 52.2783C61.6301 52.2783 62.205 51.9909 62.55 51.4735V52.1634H63.7573V49.4038ZM59.3305 49.4038C59.3305 48.4264 59.9629 47.6216 60.9977 47.6216C61.975 47.6216 62.665 48.3689 62.665 49.4038C62.665 50.3811 61.975 51.186 60.9977 51.186C59.9629 51.1285 59.3305 50.3811 59.3305 49.4038ZM18.9717 49.4038V46.6442H17.7644V47.3341C17.3619 46.8167 16.787 46.5292 16.0396 46.5292C14.4874 46.5292 13.2801 47.7365 13.2801 49.4038C13.2801 51.071 14.4874 52.2783 16.0396 52.2783C16.8445 52.2783 17.4194 51.9909 17.7644 51.4735V52.1634H18.9717V49.4038ZM14.4874 49.4038C14.4874 48.4264 15.1198 47.6216 16.1546 47.6216C17.132 47.6216 17.8219 48.3689 17.8219 49.4038C17.8219 50.3811 17.132 51.186 16.1546 51.186C15.1198 51.1285 14.4874 50.3811 14.4874 49.4038Z" fill="black"/>
<path d="M42.5423 4.73291H24.4326V37.2729H42.5423V4.73291Z" fill="#FF5F00"/>
<path d="M25.5836 21.003C25.5836 14.3915 28.6881 8.52739 33.4598 4.73298C29.9529 1.9734 25.5261 0.306152 20.6968 0.306152C9.25607 0.306152 0 9.56223 0 21.003C0 32.4437 9.25607 41.6998 20.6968 41.6998C25.5261 41.6998 29.9529 40.0325 33.4598 37.273C28.6881 33.536 25.5836 27.6144 25.5836 21.003Z" fill="#EB001B"/>
<path d="M66.9774 21.003C66.9774 32.4437 57.7213 41.6998 46.2806 41.6998C41.4514 41.6998 37.0245 40.0325 33.5176 37.273C38.3468 33.4785 41.3939 27.6144 41.3939 21.003C41.3939 14.3915 38.2893 8.52739 33.5176 4.73298C37.0245 1.9734 41.4514 0.306152 46.2806 0.306152C57.7213 0.306152 66.9774 9.61972 66.9774 21.003Z" fill="#F79E1B"/>
</g>
<defs>
<clipPath id="clip0_27_19">
<rect width="66.9772" height="51.972" fill="white" transform="translate(0 0.306152)"/>
</clipPath>
</defs>
</svg>
