<svg width="126" height="40" viewBox="0 0 126 40" fill="none" xmlns="http://www.w3.org/2000/svg">
<g clip-path="url(#clip0_27_15)">
<path d="M66.2625 10.6576C66.2625 12.0429 65.1145 13.1764 63.7114 13.1764C62.3084 13.1764 61.1604 12.0429 61.1604 10.6576C61.1604 9.27228 62.2446 8.13882 63.7114 8.13882C65.1783 8.1703 66.2625 9.30376 66.2625 10.6576ZM55.8033 15.6952C55.8033 15.9156 55.8033 16.3249 55.8033 16.3249C55.8033 16.3249 54.5915 14.7821 52.0086 14.7821C47.7676 14.7821 44.4194 17.9936 44.4194 22.4015C44.4194 26.8094 47.7038 30.0208 52.0086 30.0208C54.6234 30.0208 55.8033 28.4466 55.8033 28.4466V29.1078C55.8033 29.4226 56.0265 29.643 56.3454 29.643H59.5023V15.16C59.5023 15.16 56.6005 15.16 56.3454 15.16C56.0265 15.16 55.8033 15.4433 55.8033 15.6952ZM55.8033 24.9833C55.2293 25.8334 54.0494 26.5575 52.6464 26.5575C50.1591 26.5575 48.2459 25.0147 48.2459 22.4015C48.2459 19.7882 50.1591 18.2455 52.6464 18.2455C54.0176 18.2455 55.2612 19.0011 55.8033 19.8197V24.9833ZM61.862 15.16H65.6247V29.643H61.862V15.16ZM117.825 14.7821C115.242 14.7821 114.03 16.3249 114.03 16.3249V8.20179H110.268V29.6745C110.268 29.6745 113.169 29.6745 113.424 29.6745C113.743 29.6745 113.967 29.3911 113.967 29.1393V28.4781C113.967 28.4781 115.178 30.0523 117.761 30.0523C122.002 30.0523 125.35 26.8094 125.35 22.433C125.382 18.0251 122.034 14.7821 117.825 14.7821ZM117.219 26.526C115.784 26.526 114.636 25.8019 114.062 24.9518V19.7882C114.636 19.0326 115.912 18.214 117.219 18.214C119.706 18.214 121.62 19.7568 121.62 22.37C121.62 24.9833 119.706 26.526 117.219 26.526ZM108.354 21.0476V29.6745H104.592V21.4884C104.592 19.0956 103.826 18.1195 101.69 18.1195C100.542 18.1195 99.3938 18.6863 98.6604 19.5364V29.643H94.8977V15.16H97.8632C98.1821 15.16 98.4053 15.4433 98.4053 15.6952V16.3249C99.4895 15.1914 100.956 14.7821 102.391 14.7821C104.018 14.7821 105.389 15.2544 106.505 16.1675C107.844 17.238 108.354 18.6233 108.354 21.0476ZM85.8097 14.7821C83.2267 14.7821 82.015 16.3249 82.015 16.3249V8.20179H78.2523V29.6745C78.2523 29.6745 81.154 29.6745 81.4091 29.6745C81.728 29.6745 81.9512 29.3911 81.9512 29.1393V28.4781C81.9512 28.4781 83.163 30.0523 85.7459 30.0523C89.987 30.0523 93.3352 26.8094 93.3352 22.433C93.3989 18.0251 90.0826 14.7821 85.8097 14.7821ZM85.2038 26.526C83.7688 26.526 82.6209 25.8019 82.0469 24.9518V19.7882C82.6209 19.0326 83.8964 18.214 85.2038 18.214C87.691 18.214 89.6043 19.7568 89.6043 22.37C89.6043 24.9833 87.691 26.526 85.2038 26.526ZM75.0316 14.7821C76.1796 14.7821 76.7535 14.971 76.7535 14.971V18.4029C76.7535 18.4029 73.6285 17.3639 71.6834 19.5678V29.706H67.9206V15.16C67.9206 15.16 70.8224 15.16 71.0775 15.16C71.3964 15.16 71.6196 15.4433 71.6196 15.6952V16.3249C72.353 15.5063 73.8836 14.7821 75.0316 14.7821ZM36.1285 28.3521C35.9372 27.8799 35.7459 27.3761 35.5546 26.9668C35.2357 26.2741 34.9168 25.613 34.6617 25.0147L34.6298 24.9833C31.9512 19.19 29.0495 13.3338 25.9882 7.57209L25.8607 7.35169C25.5418 6.78497 25.2229 6.15527 24.9359 5.52557C24.5533 4.8329 24.1706 4.10875 23.5329 3.41608C22.2892 1.87332 20.5035 1.02322 18.5903 1.02322C16.6451 1.02322 14.8913 1.87332 13.5839 3.32162C13.0099 4.01429 12.5635 4.73845 12.1808 5.43111C11.862 6.06081 11.5431 6.65903 11.2561 7.25724L11.1285 7.47763C8.13108 13.2709 5.19741 19.1271 2.48695 24.8888L2.45506 24.9518C2.16807 25.5815 1.88108 26.2112 1.56221 26.9038C1.37088 27.3131 1.17955 27.7854 0.988227 28.2892C0.478023 29.706 0.318584 31.0598 0.509911 32.4452C0.924451 35.3418 2.90149 37.7661 5.58006 38.8366C6.60047 39.2459 7.65277 39.4663 8.73695 39.4663C9.05583 39.4663 9.43848 39.4348 9.75736 39.4034C11.0329 39.2459 12.3722 38.8366 13.6477 38.081C15.2421 37.1994 16.7727 35.9085 18.4946 34.0824C20.2165 35.94 21.779 37.1994 23.3415 38.081C24.6171 38.8051 25.9563 39.2459 27.2318 39.4034C27.5507 39.4348 27.9334 39.4663 28.2523 39.4663C29.3364 39.4663 30.4525 39.2774 31.4091 38.8366C34.1515 37.7661 36.0648 35.2788 36.4793 32.4452C36.7982 31.1228 36.6387 29.769 36.1285 28.3521ZM18.5265 30.3357C16.4219 27.7224 15.0507 25.2351 14.5724 23.1571C14.3811 22.2756 14.3492 21.4884 14.4449 20.7958C14.5086 20.1661 14.7637 19.6308 15.0826 19.19C15.816 18.151 17.0597 17.4898 18.5265 17.4898C19.9933 17.4898 21.2688 18.1195 21.9704 19.19C22.2892 19.6623 22.5125 20.1975 22.6081 20.7958C22.7357 21.4884 22.6719 22.307 22.4806 23.1571C22.0023 25.2351 20.6311 27.691 18.5265 30.3357ZM34.0877 32.1618C33.8007 34.1769 32.4614 35.9085 30.5482 36.6642C29.6234 37.042 28.603 37.1679 27.5826 37.042C26.5941 36.916 25.6375 36.6327 24.6171 36.0345C23.214 35.2788 21.8109 34.0824 20.1528 32.2878C22.7357 29.1708 24.2982 26.3056 24.8722 23.7553C25.1591 22.5589 25.191 21.4884 25.0635 20.4809C24.904 19.5049 24.5533 18.6233 24.0112 17.8677C22.7994 16.136 20.7586 15.1285 18.4946 15.1285C16.2306 15.1285 14.1898 16.1675 12.978 17.8677C12.4359 18.6233 12.0852 19.5364 11.9257 20.4809C11.7663 21.4884 11.7982 22.5904 12.1171 23.7553C12.691 26.3056 14.3173 29.2022 16.8364 32.3192C15.2421 34.0824 13.8071 35.2788 12.3722 36.066C11.3517 36.6327 10.3951 36.9475 9.40659 37.0735C8.3543 37.1994 7.33389 37.042 6.44103 36.6957C4.52777 35.94 3.15659 34.1769 2.90149 32.1933C2.77394 31.2173 2.8696 30.2727 3.25226 29.2022C3.37981 28.8244 3.57114 28.4466 3.76246 27.9743C4.04945 27.3446 4.33644 26.7149 4.65532 26.0537L4.68721 25.9908C7.36578 20.2605 10.2676 14.3728 13.265 8.67406L13.3926 8.45367C13.7114 7.88694 14.0303 7.25724 14.3173 6.69051C14.6362 6.06081 14.987 5.49408 15.4015 4.99032C16.2306 4.07726 17.3148 3.5735 18.5265 3.5735C19.7382 3.5735 20.8224 4.07726 21.6515 4.99032C22.066 5.49408 22.4168 6.06081 22.7357 6.69051C23.0546 7.25724 23.3734 7.88694 23.6604 8.45367L23.788 8.67406C26.7535 14.4043 29.6553 20.292 32.3339 26.0223V26.0537C32.6528 26.6834 32.9079 27.3761 33.2267 27.9743C33.4181 28.4466 33.6094 28.8244 33.7369 29.2022C34.1196 30.1783 34.2472 31.1543 34.0877 32.1618Z" fill="#244D4D"/>
</g>
<defs>
<clipPath id="clip0_27_15">
<rect width="125" height="39" fill="white" transform="translate(0.382812 0.688477)"/>
</clipPath>
</defs>
</svg>
