<svg width="99" height="35" viewBox="0 0 99 35" fill="none" xmlns="http://www.w3.org/2000/svg">
<g clip-path="url(#clip0_27_7)">
<path d="M6.57441 24.5885C6.98558 25.6869 7.55483 26.626 8.28228 27.4059C9.00972 28.1859 9.87153 28.7828 10.8677 29.1967C11.864 29.6106 12.9472 29.8175 14.1174 29.8175C15.256 29.8175 16.3233 29.6026 17.3196 29.1727C18.3159 28.7429 19.1855 28.1381 19.9287 27.3582C20.6719 26.5782 21.2491 25.647 21.6603 24.5646C22.0715 23.4822 22.277 22.2726 22.277 20.9354V0.306152H27.2582V33.7331H22.3245V30.6292C21.2175 31.807 19.9129 32.7143 18.4106 33.3512C16.9083 33.9878 15.2876 34.3062 13.5481 34.3062C11.7769 34.3062 10.1245 33.9957 8.59058 33.3749C7.05675 32.7542 5.72835 31.8708 4.6057 30.7247C3.48304 29.5786 2.59741 28.2019 1.94911 26.5941C1.30071 24.9864 0.976562 23.1958 0.976562 21.2219V0.306152H5.95771V20.9354C5.95771 22.2726 6.16324 23.4901 6.57441 24.5885Z" fill="#154444"/>
<path d="M35.8441 0.306152V12.4831C36.951 11.3689 38.232 10.4855 39.6867 9.83286C41.1415 9.18017 42.7229 8.85389 44.4307 8.85389C46.2018 8.85389 47.862 9.1881 49.4118 9.85663C50.9615 10.5252 52.3055 11.4325 53.4441 12.5786C54.5828 13.7247 55.4841 15.0777 56.1483 16.6376C56.8124 18.1976 57.1445 19.853 57.1445 21.604C57.1445 23.3548 56.8124 25.0023 56.1483 26.5462C55.4841 28.0903 54.5828 29.4354 53.4441 30.5813C52.3055 31.7274 50.9615 32.6348 49.4118 33.3033C47.862 33.9718 46.2017 34.306 44.4307 34.306C42.7228 34.306 41.1337 33.9798 39.663 33.3271C38.1924 32.6745 36.9036 31.791 35.7967 30.6768V33.733H31.0527V0.306152H35.8441ZM36.3896 24.8988C36.8165 25.9177 37.4096 26.809 38.1687 27.5731C38.9277 28.3371 39.8132 28.9421 40.8253 29.3877C41.8374 29.8334 42.9284 30.0563 44.0986 30.0563C45.2373 30.0563 46.3125 29.8334 47.3245 29.3877C48.3365 28.9421 49.2141 28.3372 49.9575 27.5731C50.7006 26.8091 51.2936 25.9177 51.7364 24.8988C52.1791 23.8801 52.4005 22.7819 52.4005 21.604C52.4005 20.426 52.1791 19.3197 51.7364 18.2851C51.2936 17.2504 50.7006 16.3511 49.9575 15.5871C49.2142 14.8231 48.3366 14.2261 47.3245 13.7964C46.3124 13.3667 45.2372 13.1516 44.0986 13.1516C42.9601 13.1516 41.8848 13.3666 40.8728 13.7964C39.8608 14.2262 38.9753 14.8231 38.2161 15.5871C37.4572 16.3511 36.8562 17.2504 36.4135 18.2851C35.9707 19.3197 35.7493 20.426 35.7493 21.604C35.7492 22.7819 35.9627 23.8801 36.3896 24.8988Z" fill="#154444"/>
<path d="M59.848 16.6853C60.4805 15.1572 61.3504 13.8122 62.4572 12.6502C63.564 11.4883 64.8766 10.573 66.3947 9.90448C67.9128 9.23595 69.5574 8.90173 71.3284 8.90173C73.0679 8.90173 74.6809 9.2201 76.1673 9.85672C77.6537 10.4934 78.9346 11.3769 80.0099 12.5071C81.0852 13.6371 81.9234 14.9743 82.5241 16.5183C83.1251 18.0623 83.4255 19.7416 83.4255 21.5563V23.1321H63.7381C63.8963 24.119 64.2126 25.0343 64.687 25.8778C65.1614 26.7214 65.7543 27.4537 66.4659 28.0744C67.1775 28.6953 67.984 29.1808 68.8853 29.5309C69.7867 29.8811 70.7433 30.0563 71.7554 30.0563C74.6335 30.0563 76.9581 28.8624 78.7291 26.4747L82.1922 29.0533C80.9904 30.6769 79.504 31.9504 77.733 32.8736C75.9618 33.7967 73.9694 34.2584 71.7555 34.2584C69.9528 34.2584 68.2687 33.9399 66.7032 33.3033C65.1377 32.6667 63.7778 31.7752 62.6234 30.6291C61.4691 29.4829 60.5598 28.1379 59.8957 26.594C59.2315 25.05 58.8994 23.3706 58.8994 21.5561C58.8992 19.837 59.2156 18.2134 59.848 16.6853ZM66.5133 14.799C65.1692 15.9292 64.2758 17.4334 63.833 19.3117H78.5868C78.1756 17.4334 77.298 15.9292 75.9538 14.799C74.6097 13.6689 73.0363 13.1039 71.2336 13.1039C69.4309 13.1039 67.8575 13.6689 66.5133 14.799Z" fill="#154444"/>
<path d="M92.3916 15.3482C91.3796 16.4624 90.8735 17.9746 90.8735 19.8848V33.7332H86.082V9.37919H90.8259V12.3876C91.4269 11.4007 92.2097 10.6207 93.1742 10.0477C94.1388 9.47461 95.2853 9.18805 96.6137 9.18805H98.274V13.6768H96.2816C94.7003 13.6769 93.4036 14.234 92.3916 15.3482Z" fill="#154444"/>
</g>
<defs>
<clipPath id="clip0_27_7">
<rect width="97.2975" height="34" fill="white" transform="translate(0.976562 0.306152)"/>
</clipPath>
</defs>
</svg>
