<svg width="107" height="38" viewBox="0 0 107 38" fill="none" xmlns="http://www.w3.org/2000/svg">
<path d="M13.0507 0.307495H4.76953C4.20275 0.307495 3.72085 0.850164 3.63243 1.58759L0.28311 29.5705C0.216495 30.1224 0.541084 30.6204 0.96604 30.6204H4.91963C5.48631 30.6204 5.9682 30.0779 6.05663 29.3391L6.95993 21.7918C7.04717 21.0528 7.53025 20.5103 8.09575 20.5103H10.7173C16.1724 20.5103 19.3207 17.0317 20.143 10.1385C20.5134 7.12268 20.1586 4.7532 19.087 3.09374C17.91 1.27131 15.8224 0.307495 13.0507 0.307495ZM14.0062 10.5279C13.5533 14.4436 11.2828 14.4437 9.08748 14.4437H7.83787L8.71453 7.13078C8.76665 6.68872 9.05719 6.36322 9.39629 6.36322H9.96898C11.4644 6.36322 12.8752 6.36322 13.6041 7.48644C14.0388 8.15671 14.1721 9.15236 14.0062 10.5279Z" fill="#283B82"/>
<path d="M37.8043 10.4017H33.8388C33.501 10.4017 33.2092 10.7272 33.1569 11.1693L32.9816 12.6309L32.7042 12.1011C31.8457 10.4591 29.9312 9.91028 28.0204 9.91028C23.6383 9.91028 19.8954 14.2839 19.1665 20.4192C18.7875 23.4797 19.3263 26.4062 20.6438 28.4469C21.8522 30.3234 23.5813 31.1052 25.6387 31.1052C29.1697 31.1052 31.1277 28.1136 31.1277 28.1136L30.9508 29.5656C30.8841 30.1209 31.2088 30.6187 31.6315 30.6187H35.2034C35.7713 30.6187 36.2508 30.0761 36.3405 29.3375L38.4837 11.4516C38.5516 10.9011 38.2283 10.4017 37.8043 10.4017ZM32.2767 20.5725C31.8942 23.5578 30.0959 25.5622 27.8026 25.5622C26.6511 25.5622 25.7307 25.0754 25.1397 24.1531C24.5537 23.2372 24.3309 21.9335 24.5174 20.4814C24.8746 17.5215 26.7031 15.452 28.9613 15.452C30.0876 15.452 31.0029 15.945 31.6059 16.8752C32.2103 17.815 32.4498 19.1267 32.2767 20.5725Z" fill="#283B82"/>
<path d="M58.9256 10.4017H54.9406C54.5604 10.4017 54.2032 10.6507 53.9876 11.0672L48.4914 21.7358L46.1617 11.4836C46.0152 10.8421 45.566 10.4017 45.0574 10.4017H41.1414C40.6654 10.4017 40.335 11.0144 40.4863 11.6048L44.8757 28.5794L40.749 36.2562C40.4244 36.8608 40.7513 37.6925 41.3122 37.6925H45.2924C45.6701 37.6925 46.0238 37.4498 46.238 37.0413L59.4923 11.8299C59.8096 11.2267 59.4839 10.4017 58.9256 10.4017Z" fill="#283B82"/>
<path d="M72.1191 0.307495H63.8366C63.2712 0.307495 62.7892 0.850164 62.7007 1.58759L59.3514 29.5705C59.285 30.1224 59.6094 30.6204 60.0321 30.6204H64.2823C64.6769 30.6204 65.015 30.2408 65.0766 29.7237L66.0271 21.7918C66.1142 21.0528 66.5975 20.5103 67.1629 20.5103H69.7834C75.2395 20.5103 78.3867 17.0317 79.21 10.1385C79.5819 7.12268 79.2247 4.7532 78.153 3.09374C76.9772 1.27131 74.8908 0.307495 72.1191 0.307495ZM73.0746 10.5279C72.6228 14.4436 70.3526 14.4437 68.1558 14.4437H66.9075L67.7855 7.13078C67.8375 6.68872 68.1255 6.36322 68.4658 6.36322H69.0386C70.533 6.36322 71.9447 6.36322 72.6736 7.48644C73.1084 8.15671 73.2403 9.15236 73.0746 10.5279Z" fill="#469BDB"/>
<path d="M96.8726 10.4017H92.9094C92.5691 10.4017 92.2795 10.7272 92.2288 11.1693L92.0532 12.6309L91.7748 12.1011C90.9163 10.4591 89.003 9.91028 87.0923 9.91028C82.7099 9.91028 78.9685 14.2839 78.2393 20.4192C77.8616 23.4797 78.398 26.4062 79.7155 28.4469C80.9265 30.3234 82.653 31.1052 84.7103 31.1052C88.2413 31.1052 90.1993 28.1136 90.1993 28.1136L90.0224 29.5656C89.956 30.1209 90.2804 30.6187 90.7056 30.6187H94.2764C94.8419 30.6187 95.3239 30.0761 95.4123 29.3375L97.5568 11.4516C97.622 10.9011 97.2976 10.4017 96.8726 10.4017ZM91.3448 20.5725C90.9645 23.5578 89.1639 25.5622 86.8707 25.5622C85.7214 25.5622 84.7987 25.0754 84.2078 24.1531C83.6219 23.2372 83.4014 21.9335 83.5856 20.4814C83.9451 17.5215 85.7712 15.452 88.0296 15.452C89.1556 15.452 90.0709 15.945 90.674 16.8752C91.2806 17.815 91.5203 19.1267 91.3448 20.5725Z" fill="#469BDB"/>
<path d="M101.547 1.07521L98.1483 29.5705C98.0819 30.1224 98.4063 30.6204 98.8289 30.6204H102.246C102.814 30.6204 103.296 30.0779 103.383 29.3391L106.735 1.35786C106.801 0.805538 106.477 0.306152 106.054 0.306152H102.228C101.89 0.307486 101.599 0.633417 101.547 1.07521Z" fill="#469BDB"/>
</svg>
