<svg width="91" height="33" viewBox="0 0 91 33" fill="none" xmlns="http://www.w3.org/2000/svg">
<g clip-path="url(#clip0_27_30)">
<path d="M33.5977 30.0662L38.1488 4.46616H45.2599L40.851 30.0662H33.5977Z" fill="#3C58BF"/>
<path d="M33.5977 30.0662L39.4288 4.46616H45.2599L40.851 30.0662H33.5977Z" fill="#293688"/>
<path d="M66.592 4.7506C65.1698 4.18171 62.8943 3.61282 60.0498 3.61282C52.9387 3.61282 47.8187 7.16838 47.8187 12.2884C47.8187 16.1284 51.3743 18.1195 54.2187 19.3995C57.0631 20.6795 57.9165 21.5328 57.9165 22.6706C57.9165 24.3773 55.6409 25.2306 53.6498 25.2306C50.8054 25.2306 49.2409 24.8039 46.8231 23.8084L45.8276 23.3817L44.832 29.2128C46.5387 29.9239 49.6676 30.635 52.9387 30.635C60.4765 30.635 65.4543 27.0795 65.4543 21.675C65.4543 18.6884 63.6054 16.4128 59.3387 14.5639C56.7787 13.2839 55.2143 12.5728 55.2143 11.2928C55.2143 10.155 56.4943 9.01727 59.3387 9.01727C61.7565 9.01727 63.4631 9.44393 64.7431 10.0128L65.4543 10.2973L66.592 4.7506Z" fill="#3C58BF"/>
<path d="M66.592 4.7506C65.1698 4.18171 62.8943 3.61282 60.0498 3.61282C52.9387 3.61282 49.0987 7.16838 49.0987 12.2884C49.0987 16.1284 51.3743 18.1195 54.2187 19.3995C57.0631 20.6795 57.9165 21.5328 57.9165 22.6706C57.9165 24.3773 55.6409 25.2306 53.6498 25.2306C50.8054 25.2306 49.2409 24.8039 46.8231 23.8084L45.8276 23.3817L44.832 29.2128C46.5387 29.9239 49.6676 30.635 52.9387 30.635C60.4765 30.635 65.4543 27.0795 65.4543 21.675C65.4543 18.6884 63.6054 16.4128 59.3387 14.5639C56.7787 13.2839 55.2143 12.5728 55.2143 11.2928C55.2143 10.155 56.4943 9.01727 59.3387 9.01727C61.7565 9.01727 63.4631 9.44393 64.7431 10.0128L65.4543 10.2973L66.592 4.7506Z" fill="#293688"/>
<path d="M78.8234 4.46616C77.1168 4.46616 75.8368 4.60838 75.1256 6.31505L64.459 30.0662H72.139L73.5612 25.7995H82.6634L83.5168 30.0662H90.3434L84.3701 4.46616H78.8234ZM75.5523 21.5328C75.979 20.2528 78.3968 13.995 78.3968 13.995C78.3968 13.995 78.9656 12.4306 79.3923 11.435L79.819 13.8528C79.819 13.8528 81.2412 20.2528 81.5256 21.6751H75.5523V21.5328Z" fill="#3C58BF"/>
<path d="M80.5301 4.46616C78.8234 4.46616 77.5434 4.60838 76.8323 6.31505L64.459 30.0662H72.139L73.5612 25.7995H82.6634L83.5168 30.0662H90.3434L84.3701 4.46616H80.5301ZM75.5523 21.5328C76.1212 20.1106 78.3968 13.995 78.3968 13.995C78.3968 13.995 78.9656 12.4306 79.3923 11.435L79.819 13.8528C79.819 13.8528 81.2412 20.2528 81.5256 21.6751H75.5523V21.5328Z" fill="#293688"/>
<path d="M20.5133 22.3862L19.8022 18.6884C18.5222 14.4218 14.3978 9.72843 9.84668 7.45287L16.2467 30.2084H23.9267L35.4467 4.60843H27.7667L20.5133 22.3862Z" fill="#3C58BF"/>
<path d="M20.5133 22.3862L19.8022 18.6884C18.5222 14.4218 14.3978 9.72843 9.84668 7.45287L16.2467 30.2084H23.9267L35.4467 4.60843H29.1889L20.5133 22.3862Z" fill="#293688"/>
<path d="M0.744141 4.46616L2.02414 4.7506C11.1264 6.88394 17.3841 12.2884 19.8019 18.6884L17.2419 6.59949C16.8153 4.89282 15.5353 4.46616 13.9708 4.46616H0.744141Z" fill="#FFBC00"/>
<path d="M0.744141 4.46616C9.84636 6.59949 17.3841 12.1462 19.8019 18.5462L17.3841 8.44838C16.9575 6.74171 15.5353 5.74616 13.9708 5.74616L0.744141 4.46616Z" fill="#F7981D"/>
<path d="M0.744141 4.46616C9.84636 6.59949 17.3841 12.1462 19.8019 18.5462L18.0953 12.9995C17.6686 11.2928 17.0997 9.58616 15.1086 8.87504L0.744141 4.46616Z" fill="#ED7C00"/>
<path d="M27.6238 21.5328L22.7883 16.6972L20.5127 22.1017L19.9438 18.5461C18.6638 14.2795 14.5394 9.58613 9.98828 7.31058L16.3883 30.0661H24.0683L27.6238 21.5328Z" fill="#051244"/>
<path d="M40.85 30.0663L34.7345 23.8085L33.5967 30.0663H40.85Z" fill="#051244"/>
<path d="M57.2054 21.2484C57.7743 21.8173 58.0587 22.244 57.9165 22.8128C57.9165 24.5195 55.6409 25.3728 53.6498 25.3728C50.8054 25.3728 49.2409 24.9462 46.8231 23.9506L45.8276 23.524L44.832 29.3551C46.5387 30.0662 49.6676 30.7773 52.9387 30.7773C57.4898 30.7773 61.1876 29.4973 63.3209 27.2217L57.2054 21.2484Z" fill="#051244"/>
<path d="M65.4551 30.066H72.1395L73.5617 25.7993H82.664L83.5173 30.066H90.344L87.9262 19.6838L79.3929 11.4349L79.8195 13.7104C79.8195 13.7104 81.2417 20.1104 81.5262 21.5327H75.5529C76.1217 20.1104 78.3973 13.9949 78.3973 13.9949C78.3973 13.9949 78.9662 12.4304 79.3929 11.4349" fill="#051244"/>
</g>
<defs>
<clipPath id="clip0_27_30">
<rect width="89.6" height="32" fill="white" transform="translate(0.744141 0.306152)"/>
</clipPath>
</defs>
</svg>
