<svg width="112" height="47" viewBox="0 0 112 47" fill="none" xmlns="http://www.w3.org/2000/svg">
<g clip-path="url(#clip0_24_4)">
<path d="M8.55731 18.3531C8.55731 17.1485 9.54576 16.685 11.1832 16.685C13.5306 16.685 16.496 17.3957 18.8437 18.6621V11.4028C16.2799 10.3835 13.747 9.98192 11.1832 9.98192C4.91234 9.98192 0.742188 13.2564 0.742188 18.724C0.742188 27.2494 12.4803 25.8904 12.4803 29.5664C12.4803 30.9871 11.2449 31.4506 9.51492 31.4506C6.95115 31.4506 3.67671 30.4002 1.08188 28.9793V36.3312C3.95472 37.5668 6.85841 38.0918 9.51492 38.0918C15.94 38.0918 20.3573 34.9103 20.3573 29.3809C20.3265 20.1758 8.55731 21.8128 8.55731 18.3531ZM29.4389 3.80402L21.9018 5.41018L21.8709 30.1531C21.8709 34.725 25.2998 38.0918 29.8715 38.0918C32.4045 38.0918 34.2578 37.6285 35.2771 37.0725V30.8018C34.2889 31.2034 29.4081 32.6243 29.4081 28.0526V17.0866H35.2771V10.5071H29.4081L29.4389 3.80402ZM44.8841 12.7929L44.3897 10.5071H37.7175V37.5358H45.4401V19.2182C47.2624 16.8396 50.3515 17.2721 51.3092 17.6118V10.5071C50.3207 10.1363 46.7066 9.45675 44.8841 12.7929ZM53.1933 10.5071H60.9468V37.5358H53.1933V10.5071ZM53.1933 8.15944L60.9468 6.49138V0.220734L53.1933 1.85795V8.15922V8.15944ZM77.0713 9.98192C74.0441 9.98192 72.098 11.4028 71.017 12.3915L70.6152 10.4763H63.8196V46.4938L71.542 44.8568L71.573 36.1149C72.6851 36.918 74.3221 38.0609 77.0405 38.0609C82.5698 38.0609 87.6049 33.6128 87.6049 23.8207C87.574 14.8625 82.4771 9.98192 77.0713 9.98192ZM75.218 31.2651C73.3955 31.2651 72.3141 30.6166 71.573 29.8134L71.542 18.3531C72.3452 17.4573 73.4572 16.8396 75.218 16.8396C78.029 16.8396 79.975 19.9903 79.975 24.0368C79.975 28.1762 78.0598 31.2651 75.218 31.2651ZM111.946 24.1296C111.946 16.2217 108.116 9.98192 100.795 9.98192C93.4429 9.98192 88.9947 16.2219 88.9947 24.0679C88.9947 33.3656 94.2463 38.0609 101.783 38.0609C105.459 38.0609 108.239 37.2269 110.34 36.0532V29.8751C108.24 30.9254 105.83 31.5742 102.772 31.5742C99.7754 31.5742 97.1189 30.5238 96.7792 26.8788H111.884C111.884 26.477 111.946 24.8709 111.946 24.1296ZM96.6865 21.1951C96.6865 17.7045 98.818 16.2526 100.764 16.2526C102.648 16.2526 104.656 17.7045 104.656 21.1951H96.6865Z" fill="#154444" fill-opacity="0.86"/>
</g>
<defs>
<clipPath id="clip0_24_4">
<rect width="111.204" height="46.4833" fill="white" transform="translate(0.742188 0.218933)"/>
</clipPath>
</defs>
</svg>
