<svg width="13" height="10" viewBox="0 0 13 10" fill="none" xmlns="http://www.w3.org/2000/svg">
<path d="M12.1242 1.35843C11.6957 1.54846 11.2347 1.67698 10.7513 1.73438C11.2449 1.43865 11.6237 0.970723 11.8025 0.412241C11.3406 0.686224 10.8288 0.884982 10.2846 0.992115C9.84857 0.527753 9.22734 0.237549 8.53944 0.237549C7.21962 0.237549 6.14919 1.30799 6.14919 2.62781C6.14919 2.81516 6.1704 2.99752 6.2114 3.17256C4.22489 3.07292 2.46353 2.12138 1.28453 0.674815C1.07882 1.02777 0.960812 1.43865 0.960812 1.87663C0.960812 2.70571 1.3831 3.43763 2.02412 3.86617C1.63249 3.85387 1.26367 3.74638 0.94156 3.56687C0.941381 3.57703 0.941381 3.58719 0.941381 3.59717C0.941381 4.75532 1.76565 5.7213 2.8589 5.94073C2.65854 5.99564 2.44695 6.02469 2.22929 6.02469C2.07492 6.02469 1.92537 6.00989 1.77955 5.98209C2.08366 6.93149 2.96621 7.62259 4.01241 7.64202C3.1942 8.28322 2.1637 8.66522 1.04352 8.66522C0.851004 8.66522 0.660269 8.65399 0.473633 8.63171C1.53088 9.31016 2.7876 9.70572 4.13737 9.70572C8.53392 9.70572 10.9383 6.06355 10.9383 2.90464C10.9383 2.80108 10.9359 2.69786 10.9313 2.59554C11.3987 2.25864 11.8039 1.83777 12.1242 1.35843Z" fill="#305F64"/>
</svg>
